<svg width="277" height="54" viewBox="0 0 277 54" fill="none" xmlns="http://www.w3.org/2000/svg">
<path d="M218.259 14.6327H228.222V19.8321H228.371C229.759 17.8514 231.42 16.3163 233.353 15.2269C235.336 14.1375 237.591 13.5928 240.119 13.5928C242.548 13.5928 244.754 14.0632 246.737 15.0041C248.769 15.9449 250.306 17.6038 251.347 19.9807C252.487 18.297 254.024 16.8115 255.957 15.524C257.94 14.2365 260.27 13.5928 262.947 13.5928C264.979 13.5928 266.863 13.8404 268.598 14.3356C270.333 14.8307 271.82 15.623 273.059 16.7124C274.298 17.8019 275.265 19.2379 275.959 21.0206C276.653 22.7537 277 24.8582 277 27.3342V53.0343H266.441V31.2709C266.441 29.9834 266.392 28.7702 266.293 27.6313C266.194 26.4924 265.921 25.502 265.475 24.6602C265.029 23.8184 264.359 23.1499 263.467 22.6547C262.624 22.1595 261.46 21.9119 259.972 21.9119C258.485 21.9119 257.271 22.209 256.329 22.8032C255.437 23.3479 254.718 24.0907 254.173 25.0316C253.677 25.9229 253.33 26.9628 253.132 28.1512C252.983 29.2902 252.909 30.4538 252.909 31.6423V53.0343H242.35V31.4937C242.35 30.3548 242.325 29.2406 242.276 28.1512C242.226 27.0123 242.003 25.9724 241.607 25.0316C241.26 24.0907 240.64 23.3479 239.748 22.8032C238.905 22.209 237.641 21.9119 235.955 21.9119C235.46 21.9119 234.791 22.0357 233.948 22.2833C233.155 22.4814 232.362 22.9023 231.569 23.546C230.825 24.1402 230.181 25.0316 229.635 26.22C229.09 27.3589 228.817 28.8692 228.817 30.751V53.0343H218.259V14.6327Z" fill="#1E1E1E"/>
<path d="M191.292 14.6327H201.33V21.7633H201.479C201.974 20.5749 202.644 19.4855 203.486 18.4951C204.329 17.4552 205.296 16.5886 206.386 15.8954C207.477 15.1526 208.642 14.5831 209.881 14.187C211.12 13.7908 212.409 13.5928 213.747 13.5928C214.441 13.5928 215.21 13.7166 216.052 13.9642V23.7688C215.557 23.6698 214.962 23.5955 214.268 23.546C213.574 23.447 212.905 23.3974 212.26 23.3974C210.327 23.3974 208.691 23.7193 207.353 24.3631C206.014 25.0068 204.924 25.8981 204.081 27.0371C203.288 28.1265 202.718 29.414 202.371 30.8995C202.024 32.3851 201.851 33.9944 201.851 35.7276V53.0343H191.292V14.6327Z" fill="#1E1E1E"/>
<path d="M157.436 33.8706C157.436 35.4057 157.585 36.916 157.882 38.4016C158.18 39.8376 158.675 41.1499 159.369 42.3383C160.113 43.4772 161.079 44.3933 162.269 45.0866C163.459 45.7798 164.946 46.1265 166.73 46.1265C168.515 46.1265 170.002 45.7798 171.192 45.0866C172.431 44.3933 173.398 43.4772 174.092 42.3383C174.835 41.1499 175.356 39.8376 175.653 38.4016C175.951 36.916 176.099 35.4057 176.099 33.8706C176.099 32.3355 175.951 30.8252 175.653 29.3397C175.356 27.8541 174.835 26.5419 174.092 25.403C173.398 24.264 172.431 23.3479 171.192 22.6547C170.002 21.9119 168.515 21.5405 166.73 21.5405C164.946 21.5405 163.459 21.9119 162.269 22.6547C161.079 23.3479 160.113 24.264 159.369 25.403C158.675 26.5419 158.18 27.8541 157.882 29.3397C157.585 30.8252 157.436 32.3355 157.436 33.8706ZM146.877 33.8706C146.877 30.8005 147.348 28.0274 148.29 25.5515C149.232 23.0261 150.57 20.8968 152.305 19.1636C154.04 17.3809 156.122 16.0192 158.551 15.0783C160.98 14.088 163.707 13.5928 166.73 13.5928C169.754 13.5928 172.481 14.088 174.91 15.0783C177.388 16.0192 179.495 17.3809 181.23 19.1636C182.965 20.8968 184.303 23.0261 185.245 25.5515C186.187 28.0274 186.658 30.8005 186.658 33.8706C186.658 36.9408 186.187 39.7138 185.245 42.1897C184.303 44.6657 182.965 46.795 181.23 48.5776C179.495 50.3108 177.388 51.6478 174.91 52.5886C172.481 53.5295 169.754 53.9999 166.73 53.9999C163.707 53.9999 160.98 53.5295 158.551 52.5886C156.122 51.6478 154.04 50.3108 152.305 48.5776C150.57 46.795 149.232 44.6657 148.29 42.1897C147.348 39.7138 146.877 36.9408 146.877 33.8706Z" fill="#1E1E1E"/>
<path d="M127.842 21.6891H121.521V14.6327H127.842V11.6616C127.842 8.24484 128.907 5.44704 131.039 3.26823C133.171 1.08941 136.393 0 140.705 0C141.647 0 142.589 0.0495203 143.531 0.148559C144.473 0.198077 145.39 0.247595 146.282 0.297112V8.17056C145.043 8.02201 143.754 7.94773 142.415 7.94773C140.978 7.94773 139.937 8.29436 139.293 8.98762C138.698 9.63136 138.4 10.7455 138.4 12.3301V14.6327H145.687V21.6891H138.4V53.0344H127.842V21.6891Z" fill="#1E1E1E"/>
<path d="M119.754 53.0345H109.715V47.6865H109.492C108.154 49.9148 106.419 51.5241 104.287 52.5145C102.156 53.5049 99.9749 54.0001 97.7442 54.0001C94.9187 54.0001 92.5888 53.6287 90.7547 52.8859C88.9702 52.1431 87.5574 51.1032 86.5164 49.7662C85.4755 48.3797 84.7319 46.7208 84.2858 44.7896C83.8892 42.8089 83.6909 40.6301 83.6909 38.2532V14.6328H94.2495V36.3219C94.2495 39.4911 94.7452 41.868 95.7366 43.4526C96.728 44.9877 98.4877 45.7552 101.016 45.7552C103.891 45.7552 105.973 44.9134 107.262 43.2298C108.551 41.4966 109.195 38.6741 109.195 34.7621V14.6328H119.754V53.0345Z" fill="#1E1E1E"/>
<path d="M42.779 26.4428C42.9278 23.9669 43.5474 21.9119 44.6379 20.2778C45.7285 18.6437 47.1165 17.3314 48.8019 16.3411C50.4873 15.3507 52.371 14.6574 54.4529 14.2613C56.5845 13.8156 58.716 13.5928 60.8475 13.5928C62.7808 13.5928 64.7388 13.7413 66.7216 14.0384C68.7045 14.286 70.5138 14.806 72.1496 15.5983C73.7854 16.3906 75.1238 17.5047 76.1648 18.9408C77.2058 20.3273 77.7263 22.1842 77.7263 24.5116V44.4924C77.7263 46.2255 77.8254 47.8844 78.0237 49.469C78.222 51.0536 78.569 52.242 79.0647 53.0343H68.3575C68.1592 52.4401 67.9857 51.8459 67.837 51.2516C67.7378 50.6079 67.6635 49.9642 67.6139 49.3204C65.9285 51.0536 63.9457 52.2668 61.6654 52.96C59.3852 53.6533 57.0554 53.9999 54.676 53.9999C52.8419 53.9999 51.1317 53.7771 49.5454 53.3314C47.9592 52.8857 46.5712 52.1925 45.3815 51.2516C44.1918 50.3108 43.25 49.1223 42.556 47.6863C41.9116 46.2503 41.5894 44.5419 41.5894 42.5611C41.5894 40.3823 41.9611 38.5996 42.7047 37.2131C43.4978 35.7771 44.4892 34.6382 45.6789 33.7963C46.9182 32.9545 48.3062 32.3355 49.8429 31.9394C51.4291 31.4937 53.0154 31.1471 54.6016 30.8995C56.1879 30.6519 57.7494 30.4538 59.286 30.3053C60.8227 30.1567 62.1859 29.9339 63.3756 29.6368C64.5653 29.3397 65.5072 28.9188 66.2011 28.3741C66.8951 27.7798 67.2173 26.938 67.1678 25.8486C67.1678 24.7097 66.9695 23.8184 66.5729 23.1746C66.2259 22.4814 65.7302 21.9614 65.0858 21.6148C64.491 21.2186 63.7722 20.971 62.9295 20.872C62.1364 20.7234 61.2689 20.6492 60.327 20.6492C58.2451 20.6492 56.6092 21.0948 55.4195 21.9862C54.2299 22.8775 53.5359 24.3631 53.3376 26.4428H42.779ZM67.1678 34.242C66.7216 34.6382 66.1516 34.96 65.4576 35.2076C64.8132 35.4057 64.0944 35.579 63.3013 35.7276C62.5577 35.8761 61.7646 35.9999 60.9219 36.099C60.0792 36.198 59.2365 36.3218 58.3938 36.4703C57.6007 36.6189 56.8075 36.817 56.0144 37.0646C55.2708 37.3122 54.6016 37.6588 54.0068 38.1045C53.4615 38.5006 53.0154 39.0206 52.6684 39.6643C52.3214 40.308 52.1479 41.1251 52.1479 42.1155C52.1479 43.0563 52.3214 43.8486 52.6684 44.4924C53.0154 45.1361 53.4863 45.656 54.0811 46.0522C54.676 46.3988 55.37 46.6464 56.1631 46.795C56.9562 46.9435 57.7741 47.0178 58.6168 47.0178C60.6988 47.0178 62.3099 46.6712 63.45 45.9779C64.5901 45.2847 65.4328 44.4676 65.9781 43.5267C66.5234 42.5364 66.8456 41.546 66.9447 40.5556C67.0934 39.5653 67.1678 38.773 67.1678 38.1787V34.242Z" fill="#1E1E1E"/>
<path d="M28.1809 33.8707C28.1809 32.2366 28.0074 30.6768 27.6604 29.1912C27.3134 27.7056 26.7681 26.3934 26.0246 25.2545C25.281 24.1155 24.3392 23.2242 23.199 22.5805C22.1085 21.8872 20.7701 21.5406 19.1838 21.5406C17.6471 21.5406 16.3087 21.8872 15.1686 22.5805C14.0285 23.2242 13.0866 24.1155 12.3431 25.2545C11.5995 26.3934 11.0542 27.7056 10.7072 29.1912C10.3603 30.6768 10.1868 32.2366 10.1868 33.8707C10.1868 35.4553 10.3603 36.9904 10.7072 38.4759C11.0542 39.9615 11.5995 41.2737 12.3431 42.4127C13.0866 43.5516 14.0285 44.4677 15.1686 45.1609C16.3087 45.8047 17.6471 46.1265 19.1838 46.1265C20.7701 46.1265 22.1085 45.8047 23.199 45.1609C24.3392 44.4677 25.281 43.5516 26.0246 42.4127C26.7681 41.2737 27.3134 39.9615 27.6604 38.4759C28.0074 36.9904 28.1809 35.4553 28.1809 33.8707ZM0 0H10.5585V19.3122H10.7072C11.9961 17.3315 13.7311 15.8955 15.9122 15.0041C18.1428 14.0633 20.4479 13.5928 22.8273 13.5928C24.7605 13.5928 26.669 13.989 28.5527 14.7813C30.4363 15.5736 32.1217 16.7868 33.6089 18.4209C35.1455 20.055 36.3848 22.1596 37.3266 24.7345C38.2685 27.26 38.7394 30.2806 38.7394 33.7964C38.7394 37.3122 38.2685 40.3576 37.3266 42.9326C36.3848 45.458 35.1455 47.5378 33.6089 49.1719C32.1217 50.8061 30.4363 52.0193 28.5527 52.8116C26.669 53.6038 24.7605 54 22.8273 54C20.0017 54 17.4736 53.5543 15.243 52.663C13.0123 51.7717 11.3269 50.2613 10.1868 48.132H10.038V53.0344H0V0Z" fill="#1E1E1E"/>
</svg>
